<svg class="w-[20px] md:w-[15px]" viewBox="0 0 15 18" fill="none"
    xmlns="http://www.w3.org/2000/svg">
    <path
        d="M5.14824 6.49693V8.86357C5.14824 9.30145 4.80197 9.65418 4.37592 9.65418C3.94987 9.65418 3.6036 9.29971 3.6036 8.86357V6.49693C3.6036 6.05905 3.94987 5.70631 4.37592 5.70631C4.80197 5.70631 5.14824 6.06079 5.14824 6.49693ZM7.50085 6.58381C7.0731 6.58381 6.72853 6.93828 6.72853 7.37443V8.86357C6.72853 9.30145 7.0748 9.65418 7.50085 9.65418C7.9286 9.65418 8.27317 9.29971 8.27317 8.86357V7.37443C8.27317 6.93655 7.9269 6.58381 7.50085 6.58381ZM14.5756 14.3492C14.2548 14.7211 13.7914 14.9331 13.3077 14.9331C13.0106 14.9331 12.7102 14.8479 12.4522 14.6933C12.4352 14.7193 12.4182 14.7437 12.4013 14.7697C12.3045 14.9105 12.2129 15.0356 12.1229 15.1572C12.1195 15.1624 12.0584 15.2424 12.0584 15.2424C10.1607 17.6994 7.56196 17.9878 6.53163 17.9965L5.95281 17.9982C2.67002 18 0 15.265 0 11.9044V6.0938C0 2.73324 2.67002 -3.05176e-05 5.95281 -3.05176e-05C9.2356 -3.05176e-05 11.9056 2.73324 11.9056 6.0938V8.7541C12.5727 8.8514 13.199 9.16939 13.6743 9.65245C14.3669 10.3562 14.8099 11.4804 14.9881 12.9921C15.0458 13.4839 14.8965 13.9791 14.5756 14.3475V14.3492ZM13.3077 13.3258C13.3756 13.3258 13.4384 13.2684 13.4299 13.185C13.3535 12.5369 13.1549 11.3883 12.5693 10.7941C12.2655 10.4865 11.8598 10.3284 11.4507 10.3284C11.2946 10.3284 11.1384 10.3527 10.9873 10.3996V10.3979C10.9873 10.3979 10.3372 10.6568 10.3372 9.91656V6.0938C10.3372 3.61596 8.37501 1.60727 5.95451 1.60727C3.534 1.60727 1.5701 3.61596 1.5701 6.0938V11.9044C1.5701 14.3822 3.53231 16.3909 5.95281 16.3909H6.52314C7.44653 16.3805 9.37988 16.1147 10.8346 14.2345C10.9279 14.1077 11.0213 13.9826 11.1129 13.8488C11.4999 13.2823 11.8785 12.5821 12.3045 12.5821C12.4115 12.5821 12.5201 12.6255 12.6338 12.7263C12.6338 12.7263 12.9224 12.9626 13.2211 13.2858C13.2466 13.3136 13.2788 13.3258 13.3094 13.3258H13.3077Z"
        fill="url(#paint0_linear_420_599)"/>
    <defs>
        <linearGradient id="paint0_linear_420_599" x1="10.4153" y1="16.9105" x2="1.4404"
            y2="1.72497" gradientUnits="userSpaceOnUse">
            <stop stop-color="#FF867A"/>
            <stop offset="0.5" stop-color="#F7525F"/>
            <stop offset="1" stop-color="#FC4C55"/>
        </linearGradient>
    </defs>
</svg>