<svg width="150" height="114" viewBox="0 0 150 114" fill="none"
    xmlns="http://www.w3.org/2000/svg">
    <defs>
        <linearGradient id="paint0_linear_772_144" x1="88.5888" y1="68.5706" x2="52.6125"
            y2="6.25676" gradientUnits="userSpaceOnUse">
            <stop stop-color="#FF867A"/>
            <stop offset="0.5" stop-color="#F7525F"/>
            <stop offset="1" stop-color="#FC4C55"/>
        </linearGradient>
        <clipPath id="clip0_772_144">
            <rect width="150" height="113.671" fill="white"/>
        </clipPath>
    </defs>
    <g clip-path="url(#clip0_772_144)">
        <path
            d="M66.7254 26.3446V35.9411C66.7254 37.7167 65.2881 39.147 63.5195 39.147C61.751 39.147 60.3137 37.7096 60.3137 35.9411V26.3446C60.3137 24.569 61.751 23.1387 63.5195 23.1387C65.2881 23.1387 66.7254 24.5761 66.7254 26.3446ZM76.491 26.6969C74.7155 26.6969 73.2851 28.1343 73.2851 29.9028V35.9411C73.2851 37.7167 74.7225 39.147 76.491 39.147C78.2666 39.147 79.6969 37.7096 79.6969 35.9411V29.9028C79.6969 28.1272 78.2595 26.6969 76.491 26.6969ZM105.858 58.185C104.527 59.6928 102.603 60.5524 100.595 60.5524C99.362 60.5524 98.1149 60.2072 97.0439 59.5801C96.9734 59.6858 96.903 59.7844 96.8325 59.8901C96.4309 60.4608 96.0504 60.9681 95.677 61.4613C95.6629 61.4825 95.4092 61.8066 95.4092 61.8066C87.5319 71.7695 76.7447 72.9391 72.4678 72.9743L70.0652 72.9814C56.4384 72.9814 45.3552 61.8982 45.3552 48.2714V24.7099C45.3552 11.0832 56.4384 0 70.0652 0C83.6919 0 94.7751 11.0832 94.7751 24.7099V35.4972C97.5442 35.8918 100.144 37.1812 102.117 39.1399C104.992 41.9935 106.831 46.5522 107.57 52.6821C107.81 54.6761 107.19 56.6842 105.858 58.1779V58.185ZM100.595 54.035C100.877 54.035 101.138 53.8024 101.102 53.4642C100.785 50.8361 99.9609 46.1788 97.5301 43.7691C96.2688 42.522 94.5849 41.8808 92.8868 41.8808C92.2386 41.8808 91.5904 41.9794 90.9633 42.1697V42.1626C90.9633 42.1626 88.2647 43.2125 88.2647 40.2109V24.7099C88.2647 14.6625 80.1197 6.51745 70.0722 6.51745C60.0248 6.51745 51.8797 14.6625 51.8797 24.7099V48.2714C51.8797 58.3189 60.0248 66.4639 70.0722 66.4639H72.4396C76.2726 66.4216 84.2979 65.3436 90.3362 57.72C90.7237 57.2056 91.1112 56.6983 91.4917 56.1558C93.0982 53.8588 94.6694 51.0193 96.4379 51.0193C96.8818 51.0193 97.3328 51.1955 97.8049 51.6041C97.8049 51.6041 99.0026 52.5624 100.243 53.8729C100.348 53.9856 100.482 54.035 100.609 54.035H100.595Z"
            fill="url(#paint0_linear_772_144)"/>
        <path
            d="M35.3352 93.647C29.8041 93.647 25.3229 98.1282 25.3229 103.659C25.3229 109.19 29.8041 113.671 35.3352 113.671C40.8662 113.671 45.3474 109.19 45.3474 103.659C45.3474 98.1282 40.8662 93.647 35.3352 93.647ZM35.3352 109.176C32.2913 109.176 29.8182 106.703 29.8182 103.652C29.8182 100.601 32.2913 98.1352 35.3352 98.1352C38.379 98.1352 40.8591 100.608 40.8591 103.652C40.8591 106.696 38.386 109.176 35.3352 109.176Z"
            fill="#232B4F"/>
        <path
            d="M54.9157 94.1331H51.1743C50.898 94.1331 50.6741 94.3571 50.6741 94.6334V112.502C50.6741 112.778 50.898 113.002 51.1743 113.002H54.9157C55.192 113.002 55.416 112.778 55.416 112.502V94.6334C55.416 94.3571 55.192 94.1331 54.9157 94.1331Z"
            fill="#232B4F"/>
        <path
            d="M150 94.6263C150 94.3515 149.782 94.1331 149.507 94.1331H130.941C130.666 94.1331 130.448 94.3515 130.448 94.6263V98.0295C130.448 98.3043 130.666 98.5227 130.941 98.5227H137.198C137.557 98.5227 137.853 98.8186 137.853 99.178V112.509C137.853 112.784 138.078 113.009 138.353 113.009H142.102C142.376 113.009 142.602 112.784 142.602 112.509V99.178C142.602 98.8186 142.898 98.5227 143.257 98.5227H149.514C149.789 98.5227 150.007 98.3043 150.007 98.0295V94.6263H150Z"
            fill="#232B4F"/>
        <path
            d="M97.1699 101.588H89.2362C88.8699 101.588 88.5739 101.292 88.5739 100.925V94.6263C88.5739 94.3515 88.3485 94.126 88.0737 94.126H84.5225C84.2477 94.126 84.0223 94.3515 84.0223 94.6263V112.502C84.0223 112.777 84.2477 113.002 84.5225 113.002H88.0737C88.3485 113.002 88.5739 112.777 88.5739 112.502V106.322C88.5739 105.956 88.8699 105.66 89.2362 105.66H97.1699C97.5363 105.66 97.8322 105.956 97.8322 106.322V112.502C97.8322 112.777 98.0577 113.002 98.3325 113.002H101.884C102.158 113.002 102.384 112.777 102.384 112.502V94.6263C102.384 94.3515 102.158 94.126 101.884 94.126H98.3325C98.0577 94.126 97.8322 94.3515 97.8322 94.6263V100.925C97.8322 101.292 97.5363 101.588 97.1699 101.588Z"
            fill="#232B4F"/>
        <path
            d="M18.0093 94.1331L12.0767 106.527C11.8864 106.921 11.3227 106.921 11.1325 106.527L5.19987 94.1331H0L7.89844 110.628C8.5819 112.051 10.0193 112.96 11.6046 112.96C13.1829 112.96 14.6273 112.051 15.3107 110.628L23.2092 94.1331H18.0163H18.0093Z"
            fill="#232B4F"/>
        <path
            d="M111.494 112.96L117.441 100.538C117.624 100.15 118.174 100.15 118.357 100.538L124.304 112.96H129.496L121.598 96.4653C120.915 95.042 119.477 94.1331 117.892 94.1331C116.314 94.1331 114.869 95.042 114.186 96.4653L106.287 112.96H111.48H111.494Z"
            fill="#232B4F"/>
        <path
            d="M70.7267 109.183C67.3376 109.183 64.6531 106.118 65.3013 102.616C65.717 100.369 67.556 98.5791 69.8107 98.2127C71.5933 97.9238 73.2421 98.5016 74.4258 99.5796C74.5949 99.7346 74.8415 99.7628 75.0388 99.636L78.0755 97.6279C78.3221 97.4658 78.3785 97.1135 78.1742 96.8951C76.3422 94.8941 73.7141 93.6399 70.7901 93.6399C64.8645 93.6399 60.1437 98.7834 60.8483 104.85C61.3768 109.387 65.0195 113.044 69.55 113.594C72.9602 114.003 76.0886 112.692 78.1742 110.416C78.3715 110.198 78.3221 109.845 78.0755 109.683L75.0388 107.675C74.8485 107.548 74.6019 107.577 74.4328 107.732C73.4534 108.627 72.1499 109.169 70.7267 109.169V109.183Z"
            fill="#232B4F"/>
    </g>
</svg>